<?xml version="1.0" standalone="no"?><!DOCTYPE svg PUBLIC "-//W3C//DTD SVG 1.1//EN" "http://www.w3.org/Graphics/SVG/1.1/DTD/svg11.dtd"><svg t="1616666516631" class="icon" viewBox="0 0 1024 1024" version="1.1" xmlns="http://www.w3.org/2000/svg" p-id="4806" width="32" height="32" xmlns:xlink="http://www.w3.org/1999/xlink"><defs><style type="text/css"></style></defs><path d="M659.800861 531.984055h-85.344168c83.956253-32.742182 143.62399-114.212805 143.62399-209.789694a225.296492 225.296492 0 1 0-450.592984 0c0 95.576889 59.617267 177.047512 143.611372 209.789694h-46.974621c-135.296499 0-246.039516 110.692547-246.039516 246.039516s110.692547 245.976429 246.039516 245.976429H659.800861c135.296499 0 246.039516-110.692547 246.039516-245.976429s-110.743017-246.039516-246.039516-246.039516z" fill="#C59BC1" p-id="4807"></path><path d="M654.137789 128.295899a37.158276 78.455062 37.62 1 0 95.781343-124.28484 37.158276 78.455062 37.62 1 0-95.781343 124.28484Z" fill="#C59BC1" p-id="4808"></path><path d="M724.738975 194.419793a37.158276 78.455062 86.77 1 0 156.660857-8.840987 37.158276 78.455062 86.77 1 0-156.660857 8.840987Z" fill="#C59BC1" p-id="4809"></path></svg>